<?xml version="1.0" encoding="UTF-8"?>
<svg width="108px" height="24px" viewBox="0 0 108 24" version="1.1" xmlns="http://www.w3.org/2000/svg" xmlns:xlink="http://www.w3.org/1999/xlink">
    <!-- Generator: Sketch 49.3 (51167) - http://www.bohemiancoding.com/sketch -->
    <title>公共/平安云 logo</title>
    <desc>Created with Sketch.</desc>
    <defs></defs>
    <g id="解决方案咨询+申请试用" stroke="none" stroke-width="1" fill="none" fill-rule="evenodd">
        <g id="产品申请资格试用页-更新" transform="translate(-60.000000, -20.000000)" fill="#FFFFFF">
            <path d="M156.042264,30.9412414 L152.133038,40.2202054 L164.754648,40.2202054 L161.978668,33.6306575 L164.487662,33.6306575 L167.26322,40.2202054 L167.263641,40.2202054 L167.263641,42.4958222 L149.624044,42.4958222 L149.624044,40.2202054 L149.624465,40.2202054 L153.533016,30.9412414 L148.887769,30.9412414 L148.887769,28.6647663 L168,28.6647663 L168,30.9412414 L156.042264,30.9412414 Z M133.516762,38.4232682 L130.024838,37.1783969 L130.024838,30.9412414 L127.316658,30.9412414 L127.316658,28.6647663 L130.024838,28.6647663 L130.024838,27.4219525 L132.241158,27.4219525 L132.241158,28.6647663 L141.504346,28.6647663 L141.504346,27.4219525 L143.720666,27.4219525 L143.720666,28.6647663 L146.428888,28.6647663 L146.428888,30.9412414 L143.720666,30.9412414 L143.720666,37.1783969 L140.228742,38.4232682 L145.859543,40.4306881 L145.127648,42.5625502 L136.872752,39.619679 L128.617856,42.5625502 L127.885961,40.4306881 L133.516762,38.4232682 Z M136.872752,37.2268342 L141.504346,35.5756383 L141.504346,30.9412414 L132.241158,30.9412414 L132.241158,35.5756383 L136.872752,37.2268342 Z M138.041152,22.6219157 L146.428888,22.6219157 L146.428888,24.8983908 L146.428888,27.0281073 L144.09213,27.0281073 L144.09213,24.8983908 L129.653416,24.8983908 L129.653416,27.0281073 L127.316658,27.0281073 L127.316658,24.8983908 L127.316658,22.6219157 L135.704394,22.6219157 L135.704394,20.6316628 L138.041152,20.6316628 L138.041152,22.6219157 Z M116.667122,24.1088123 L116.667122,33.0688123 L125.054858,33.0688123 L125.054858,35.3452874 L116.667122,35.3452874 L116.667122,42.9758774 L114.330363,42.9758774 L114.330363,35.3452874 L105.942627,35.3452874 L105.942627,33.0688123 L114.330363,33.0688123 L114.330363,24.1088123 L107.420735,24.1088123 L107.420735,21.8323372 L123.577171,21.8323372 L123.577171,24.1088123 L116.667122,24.1088123 Z M66.4547507,20 L71.5322934,20 L65.0775427,44 L60,44 L60,43.9983394 L66.4547507,20 Z M94.0396892,28.6327111 C92.2617485,28.6327111 90.8156451,27.1586881 90.8156451,25.3473778 C90.8156451,23.5356383 92.2617485,22.0620444 94.0396892,22.0620444 C95.8176298,22.0620444 97.2633121,23.5356383 97.2633121,25.3473778 C97.2633121,27.1586881 95.8176298,28.6327111 94.0396892,28.6327111 Z M94.1239539,32.3585778 C95.9018946,32.3585778 97.3475768,33.8326008 97.3475768,35.6439111 C97.3475768,37.4552215 95.9018946,38.9292444 94.1239539,38.9292444 C92.3460133,38.9292444 90.8999099,37.4552215 90.8999099,35.6439111 C90.8999099,33.8326008 92.3460133,32.3585778 94.1239539,32.3585778 Z M73.8788862,20.1427678 L89.1442461,29.1237946 C90.1806062,29.7335724 90.1806062,31.2578023 89.1442461,31.867151 L73.8788862,40.8486069 L72.5629069,35.9489287 L81.8320335,30.4956874 L72.5629069,25.0420169 L73.8788862,20.1427678 Z M150.554115,24.1088123 L150.554115,21.8323372 L166.333654,21.8323372 L166.333654,24.1088123 L150.554115,24.1088123 Z M121.006948,25.8616766 L123.297804,25.8616766 L121.497124,31.4483739 L119.206688,31.4483739 L121.006948,25.8616766 Z M109.99058,25.8616766 L111.79126,31.4483739 L109.500404,31.4483739 L107.699723,25.8616766 L109.99058,25.8616766 Z" id="公共/平安云-logo"></path>
        </g>
    </g>
</svg>